{"title":"The Smurfs 2011 TS x264 Feel-Free","uid":6593368,"size":1219643778,"categoryP":"video","categoryS":"movies","magnet":"?xt=urn:btih:74709faff797c89ba6e76a5c5e28453fef8d2a5a&amp;dn=The+Smurfs+2011+TS+x264+Feel-Free&amp;tr=udp%3A%2F%2Ftracker.openbittorrent.com%3A80&amp;tr=udp%3A%2F%2Fopen.demonii.com%3A1337&amp;tr=udp%3A%2F%2Ftracker.coppersurfer.tk%3A6969&amp;tr=udp%3A%2F%2Fexodus.desync.com%3A6969","seeders":0,"leechers":1,"uploader":".BONE.","files":9,"time":1312920197,"description":"Genre:Animation | Comedy | Family\nLanguage:English\nIMDb:http://www.imdb.com/title/tt0472181/\nSource:CAM.XViD-GANE13/IMAGINE Thanks!\n\nFormat profile : Base Media\nCodec ID : isom\nFile size : 1.13 GiB\nDuration : 1h 34mn\nOverall bit rate : 1 727 Kbps\n\nVideo\nID : 1\nFormat : AVC\nFormat/Info : Advanced Video Codec\nFormat profile : &lt;a class=&quot;__cf_email__&quot; href=&quot;/cdn-cgi/l/email-protection&quot; data-cfemail=&quot;83cbeae4ebc3cfb7adb2&quot;&gt;[email&amp;#160;protected]&lt;/a&gt;&lt;script cf-hash='f9e31' type=&quot;text/javascript&quot;&gt;\n/* &lt;![CDATA[ */!function(){try{var t=&quot;currentScript&quot;in document?document.currentScript:function(){for(var t=document.getElementsByTagName(&quot;script&quot;),e=t.length;e--;)if(t[e].getAttribute(&quot;cf-hash&quot;))return t[e]}();if(t&amp;&amp;t.previousSibling){var e,r,n,i,c=t.previousSibling,a=c.getAttribute(&quot;data-cfemail&quot;);if(a){for(e=&quot;&quot;,r=parseInt(a.substr(0,2),16),n=2;a.length-n;n+=2)i=parseInt(a.substr(n,2),16)^r,e+=String.fromCharCode(i);e=document.createTextNode(e),c.parentNode.replaceChild(e,c)}}}catch(u){}}();/* ]]&gt; */&lt;/script&gt;\nFormat settings, CABAC : Yes\nFormat settings, ReFrames : 3 frames\nFormat settings, GOP : N=1\nCodec ID : avc1\nCodec ID/Info : Advanced Video Coding\nDuration : 1h 34mn\nBit rate mode : Variable\nBit rate : 1 500 Kbps\nMaximum bit rate : 6 092 Kbps\nWidth : 720 pixels\nHeight : 384 pixels\nDisplay aspect ratio : 1.875\nFrame rate mode : Constant\nFrame rate : 29.970 fps\nColor space : YUV\nChroma subsampling : 4:2:0\nBit depth : 8 bits\nScan type : Progressive\nBits/(Pixel*Frame) : 0.181\nStream size : 1 008 MiB (87%)\nWriting library : x264\n\nAudio\nID : 2\nFormat : AAC\nFormat/Info : Advanced Audio Codec\nFormat version : Version 4\nFormat profile : LC\nFormat settings, SBR : No\nCodec ID : 40\nDuration : 1h 34mn\nBit rate mode : Variable\nBit rate : 224 Kbps\nMaximum bit rate : 300 Kbps\nChannel(s) : 2 channels\nChannel positions : Front: L R\nSampling rate : 44.1 KHz\nStream size : 151 MiB (13%)\n\n\nPlot:\nWhen the evil wizard Gargamel chases the tiny blue Smurfs out of their village, they tumble from their magical world and into ours\n &lt;a href=&quot;\nhttp://www.pix2links.com/images/10366412881434704740.png&quot; rel=&quot;nofollow&quot; target=&quot;_NEW&quot;&gt;\nhttp://www.pix2links.com/images/10366412881434704740.png&lt;/a&gt;\n &lt;a href=&quot;\nhttp://www.pix2links.com/images/08998851732850659558.png&quot; rel=&quot;nofollow&quot; target=&quot;_NEW&quot;&gt;\nhttp://www.pix2links.com/images/08998851732850659558.png&lt;/a&gt;\n &lt;a href=&quot;\nhttp://www.pix2links.com/images/57041505026053324658.png&quot; rel=&quot;nofollow&quot; target=&quot;_NEW&quot;&gt;\nhttp://www.pix2links.com/images/57041505026053324658.png&lt;/a&gt;\n &lt;a href=&quot;\nhttp://www.pix2links.com/images/58593901798167589484.png&quot; rel=&quot;nofollow&quot; target=&quot;_NEW&quot;&gt;\nhttp://www.pix2links.com/images/58593901798167589484.png&lt;/a&gt;\n &lt;a href=&quot;\nhttp://www.pix2links.com/images/50213654642270095610.png&quot; rel=&quot;nofollow&quot; target=&quot;_NEW&quot;&gt;\nhttp://www.pix2links.com/images/50213654642270095610.png&lt;/a&gt;","torrent":{"xt":"urn:btih:74709faff797c89ba6e76a5c5e28453fef8d2a5a","amp;dn":"The+Smurfs+2011+TS+x264+Feel-Free","amp;tr":["udp%3A%2F%2Ftracker.openbittorrent.com%3A80","udp%3A%2F%2Fopen.demonii.com%3A1337","udp%3A%2F%2Ftracker.coppersurfer.tk%3A6969","udp%3A%2F%2Fexodus.desync.com%3A6969"],"infoHash":"74709faff797c89ba6e76a5c5e28453fef8d2a5a","infoHashBuffer":{"type":"Buffer","data":[116,112,159,175,247,151,200,155,166,231,106,92,94,40,69,63,239,141,42,90]},"announce":[],"urlList":[]}}